<svg width="67" height="66" fill="none" xmlns="http://www.w3.org/2000/svg"><g clip-path="url(#clip0)" fill="#060122"><path d="M62.21 56.783a4.507 4.507 0 004.503-4.5V6.444C66.713 2.891 63.821 0 60.265 0H7.128C3.572 0 .679 2.891.679 6.445v45.837a4.507 4.507 0 004.503 4.502h1.43v6.638H1.969a1.29 1.29 0 100 2.578h63.455a1.29 1.29 0 100-2.578H60.78v-6.639h1.429zM3.258 6.445a3.873 3.873 0 013.87-3.867h53.137a3.873 3.873 0 013.869 3.867v2.836H3.388c-.044 0-.087.003-.13.007V6.445zm11.608 56.977H9.191V51.82h5.675v11.602zm14.445 0h-5.675V37.567h5.675v25.855zm14.445 0h-5.675V48.469h5.675v14.953zm15.735-30.357h-8.254a1.29 1.29 0 00-1.29 1.288v6.51a1.29 1.29 0 002.58 0v-5.22H58.2v27.779h-5.675v-13.89a1.29 1.29 0 00-2.58 0v13.89h-3.61V47.18a1.29 1.29 0 00-1.29-1.29h-8.254a1.29 1.29 0 00-1.29 1.29v16.242H31.89V36.278a1.29 1.29 0 00-1.29-1.289h-8.254a1.29 1.29 0 00-1.29 1.29v27.143h-3.611v-12.89a1.29 1.29 0 00-1.29-1.29H7.902a1.29 1.29 0 00-1.29 1.29v3.673h-1.43a1.926 1.926 0 01-1.924-1.923v-40.43c.043.005.086.007.13.007h60.746v40.423c0 1.06-.863 1.923-1.924 1.923h-1.43V34.353a1.29 1.29 0 00-1.29-1.288z"/><path d="M58.459 4.64h-29.14a1.29 1.29 0 100 2.579h29.14a1.29 1.29 0 100-2.578zm-43.455.378a1.3 1.3 0 00-.912-.377 1.3 1.3 0 00-.912.377 1.293 1.293 0 00.912 2.201 1.3 1.3 0 00.912-.378c.24-.24.378-.572.378-.911 0-.34-.138-.672-.378-.912zm-5.159 0a1.3 1.3 0 00-.912-.377 1.3 1.3 0 00-.912.377 1.3 1.3 0 00-.377.912c0 .339.138.671.377.91.24.24.573.379.912.379a1.3 1.3 0 00.912-.378c.24-.24.378-.572.378-.911 0-.34-.138-.672-.378-.912zm10.318 0a1.297 1.297 0 00-.912-.377 1.3 1.3 0 00-.912.377 1.293 1.293 0 00.912 2.201 1.3 1.3 0 00.912-.378c.24-.24.378-.572.378-.911 0-.34-.138-.672-.378-.912zm35.201 12.505a4.647 4.647 0 00-4.643 4.641c0 1.016.33 1.957.886 2.722L43.04 33.45a4.615 4.615 0 00-2.241-.578c-.732 0-1.425.17-2.04.474l-8.946-8.941a4.61 4.61 0 00.578-2.24 4.647 4.647 0 00-4.643-4.64 4.647 4.647 0 00-4.643 4.64c0 .894.255 1.73.695 2.44l-7.616 7.611a4.615 4.615 0 00-2.24-.578A4.647 4.647 0 007.3 36.279a4.647 4.647 0 004.643 4.64 4.647 4.647 0 004.643-4.64 4.61 4.61 0 00-.578-2.24l7.707-7.703c.614.3 1.304.47 2.033.47.812 0 1.576-.21 2.24-.578l8.858 8.853a4.61 4.61 0 00-.69 2.431 4.647 4.647 0 004.643 4.641 4.647 4.647 0 004.643-4.64 4.61 4.61 0 00-.578-2.24l8.796-8.792a4.617 4.617 0 001.704.325 4.647 4.647 0 004.643-4.641 4.647 4.647 0 00-4.643-4.64zm-43.42 20.818a2.065 2.065 0 01-2.064-2.063 2.065 2.065 0 014.127 0 2.065 2.065 0 01-2.064 2.063zm13.804-14.114a2.065 2.065 0 01-2.064-2.063c0-1.137.926-2.063 2.064-2.063s2.063.926 2.063 2.063a2.065 2.065 0 01-2.063 2.063zm15.051 15.347a2.065 2.065 0 01-2.063-2.062 2.065 2.065 0 014.127 0 2.065 2.065 0 01-2.064 2.062zm14.565-15.347a2.065 2.065 0 01-2.064-2.063c0-1.137.926-2.063 2.064-2.063s2.063.926 2.063 2.063a2.065 2.065 0 01-2.063 2.063zm-41.272-7.982h-6.19a1.29 1.29 0 100 2.578h6.19a1.29 1.29 0 100-2.578zm0 6.187h-6.19a1.29 1.29 0 100 2.579h6.19a1.29 1.29 0 100-2.579z"/></g><defs><clipPath id="clip0"><path fill="#fff" transform="translate(.679)" d="M0 0h66.034v66H0z"/></clipPath></defs></svg>