<svg width="75" height="74" fill="none" xmlns="http://www.w3.org/2000/svg"><path d="M18.788 65.906V16.187h-2.313v49.72a5.781 5.781 0 005.784 5.78h26.608v-2.312H22.259a3.48 3.48 0 01-3.47-3.469z" fill="#060122"/><path d="M31.514 64.75h11.568v2.313H31.514V64.75zM21.102 24.281c0 .636.52 1.157 1.157 1.157h1.258a1.736 1.736 0 001.634 1.156c.752 0 1.388-.477 1.634-1.157h2.516c.246.68.882 1.157 1.634 1.157.752 0 1.389-.477 1.634-1.157h1.258a1.16 1.16 0 001.157-1.156v-3.468c0-.434-.245-.839-.636-1.041l-1.966-.983-.984-1.966a1.162 1.162 0 00-1.041-.636H25.73c-.434 0-.84.246-1.042.636l-.983 1.966-1.967.983c-.39.202-.636.593-.636 1.04v3.47zm2.314-2.76l1.677-.839c.217-.115.405-.289.52-.52l.84-1.677h3.195l.84 1.677c.115.217.288.405.52.52l1.677.839v1.604H23.43v-1.604h-.014zm25.451-6.49v1.532l-1.59-1.272a1.173 1.173 0 00-1.447 0l-5.784 4.625c-.39.304-.535.824-.376 1.287.159.462.607.78 1.084.78v3.469a1.16 1.16 0 001.157 1.156h9.255a1.16 1.16 0 001.157-1.156v-3.469c.492 0 .925-.303 1.085-.78a1.154 1.154 0 00-.376-1.287l-1.88-1.503v-3.382h-2.285zm1.157 5.781v3.47H47.71v-2.313h-2.314v2.312h-2.313v-3.468a1.23 1.23 0 00-.044-.333l3.514-2.818 3.514 2.818a1.232 1.232 0 00-.043.332zm1.098 13.095l.767-1.532h1.605v-2.313H51.18c-.434 0-.839.246-1.041.636l-.839 1.677h-8.532c-.347 0-.68.159-.896.42-.217.26-.304.62-.246.953l1.157 5.781c.043.203.145.39.275.55-.188.274-.29.606-.29.968a1.74 1.74 0 001.736 1.734 1.74 1.74 0 001.735-1.734c0-.203-.043-.39-.101-.578h2.516a1.942 1.942 0 00-.101.578c0 .954.78 1.734 1.735 1.734a1.74 1.74 0 001.735-1.734c0-.361-.116-.694-.289-.968.13-.145.231-.333.275-.55l1.113-5.622zm-2.516.78l-.694 3.47h-5.047l-.694-3.47h6.435zM21.102 50.875c0 .636.52 1.156 1.157 1.156h1.157v5.782c0 .635.52 1.156 1.157 1.156a1.16 1.16 0 001.157-1.157v-1.156h5.784v1.157c0 .635.52 1.156 1.157 1.156a1.16 1.16 0 001.157-1.157v-2.76l.636.318 1.041-2.067-2.01-1.012a3.449 3.449 0 00-3.138-1.994h-2.748l-.043-.29a3.022 3.022 0 00-2.993-2.6 1.16 1.16 0 00-1.157 1.156v.202l-1.374.26a1.15 1.15 0 00-.94 1.142v.708zm4.628 1.344c.216.246.52.39.867.39h3.76c.636 0 1.157.52 1.157 1.157v.578H25.73v-2.125z" fill="#060122"/><path d="M64.744 45.166l-6.623-7.443V8.093a5.781 5.781 0 00-5.784-5.78H22.26a5.781 5.781 0 00-5.784 5.78v5.782h2.313V8.094a3.48 3.48 0 013.471-3.469h30.078a3.48 3.48 0 013.47 3.469v41.148l-3.774-3.773a5.206 5.206 0 00-3.716-1.532 5.257 5.257 0 00-5.25 5.247 5.26 5.26 0 001.534 3.714l.303.304h-1.822v-2.313H40.77v3.47c0 .635.52 1.155 1.157 1.155h2.761l-1.474 2.949 2.067 1.04 1.981-3.96 3.587 3.585a10.445 10.445 0 00-.42 10.175l.767 1.517v.882h2.313v-1.156c0-.174-.043-.362-.115-.52l-.882-1.764a8.135 8.135 0 01.78-8.585 1.165 1.165 0 00-.1-1.518l-6.898-6.894a2.907 2.907 0 01-.854-2.067 2.937 2.937 0 015.004-2.08l5.74 5.737 3.471 3.469 1.634-1.633-3.167-3.137V41.191l4.903 5.507a8.11 8.11 0 012.038 5.377v19.612h2.314V52.076c0-2.544-.94-5.001-2.632-6.909z" fill="#060122"/><path d="M21.102 10.406a1.157 1.157 0 112.314.001 1.157 1.157 0 01-2.314 0zm4.628 0a1.157 1.157 0 112.313.001 1.157 1.157 0 01-2.313 0zm4.627 0a1.157 1.157 0 112.313.001 1.157 1.157 0 01-2.313 0zM29.2 41.625v-3.469h3.47v-2.312H29.2v-3.469h-2.314v3.469h-3.47v2.312h3.47v3.469H29.2z" fill="#060122"/><path d="M17.638 12.5v5" stroke="#060122" stroke-width="2.3"/></svg>