<svg width="69" height="68" fill="none" xmlns="http://www.w3.org/2000/svg"><g clip-path="url(#clip0)" fill="#060122"><path d="M18.821 7.933a1.134 1.134 0 100-2.267 1.134 1.134 0 000 2.267zm4.536 0a1.134 1.134 0 100-2.267 1.134 1.134 0 000 2.267zm13.607 0h13.607a1.134 1.134 0 100-2.266H36.964a1.134 1.134 0 100 2.266zM18.821 23.8a1.134 1.134 0 100-2.267 1.134 1.134 0 000 2.267zm4.536 0a1.134 1.134 0 100-2.267 1.134 1.134 0 000 2.267zm13.607 0h13.607a1.134 1.134 0 100-2.267H36.964a1.134 1.134 0 100 2.267zM18.821 39.667a1.134 1.134 0 100-2.268 1.134 1.134 0 000 2.268zm4.536 0a1.134 1.134 0 100-2.267 1.134 1.134 0 000 2.267zM50.571 37.4H36.964a1.134 1.134 0 100 2.267h13.607a1.134 1.134 0 100-2.267z"/><path d="M51.705 52.133a2.267 2.267 0 00-2.268 2.267v11.333A2.267 2.267 0 0051.705 68h13.607a2.267 2.267 0 002.267-2.267V54.4a2.267 2.267 0 00-2.267-2.267h-5.67v-2.266a2.267 2.267 0 00-2.268-2.267H35.83v-2.267h17.009a3.4 3.4 0 003.401-3.4v-6.8a3.4 3.4 0 00-2.268-3.191v-2.684a3.4 3.4 0 002.268-3.191v-6.8a3.4 3.4 0 00-2.268-3.192v-2.683A3.4 3.4 0 0056.24 10.2V3.4a3.4 3.4 0 00-3.4-3.4H16.553a3.4 3.4 0 00-3.402 3.4v6.8a3.4 3.4 0 002.268 3.192v2.683a3.4 3.4 0 00-2.268 3.192v6.8a3.4 3.4 0 002.268 3.191v2.684a3.4 3.4 0 00-2.268 3.191v6.8a3.4 3.4 0 003.402 3.4h17.009V47.6H12.017a2.267 2.267 0 00-2.268 2.267v2.266H4.08A2.267 2.267 0 001.813 54.4v11.333A2.267 2.267 0 004.08 68h13.607a2.267 2.267 0 002.268-2.267V54.4a2.267 2.267 0 00-2.268-2.267h-5.67v-2.266h21.545v2.266h-5.67a2.267 2.267 0 00-2.268 2.267v11.333A2.267 2.267 0 0027.892 68H41.5a2.267 2.267 0 002.268-2.267V54.4a2.267 2.267 0 00-2.268-2.267h-5.67v-2.266h21.545v2.266h-5.67zM17.687 29.467h34.018v2.266H17.687v-2.266zm0-15.867h34.018v2.267H17.687V13.6zM15.419 3.4c0-.626.508-1.133 1.134-1.133h36.285c.627 0 1.134.507 1.134 1.133v6.8c0 .626-.507 1.133-1.133 1.133H16.553a1.134 1.134 0 01-1.134-1.133V3.4zm0 15.867c0-.626.508-1.134 1.134-1.134h36.285c.627 0 1.134.508 1.134 1.134v6.8c0 .626-.507 1.133-1.133 1.133H16.553a1.134 1.134 0 01-1.134-1.133v-6.8zm0 22.666v-6.8c0-.626.508-1.133 1.134-1.133h36.285c.627 0 1.134.507 1.134 1.133v6.8c0 .626-.507 1.134-1.133 1.134H16.553a1.134 1.134 0 01-1.134-1.134zm-2.268 23.8H8.615v-3.4h4.536v3.4zm4.536 0h-2.268v-3.4a2.267 2.267 0 00-2.268-2.266H8.615a2.267 2.267 0 00-2.267 2.266v3.4H4.08V54.4h9.071v1.133a1.134 1.134 0 002.268 0V54.4h2.268v11.333zm19.277 0h-4.536v-3.4h4.536v3.4zm4.535 0h-2.268v-3.4a2.267 2.267 0 00-2.267-2.266h-4.536a2.267 2.267 0 00-2.268 2.266v3.4h-2.268V54.4h9.072v1.133a1.134 1.134 0 002.267 0V54.4H41.5v11.333zm19.277 0H56.24v-3.4h4.536v3.4zm4.536 0h-2.268v-3.4a2.267 2.267 0 00-2.268-2.266H56.24a2.267 2.267 0 00-2.268 2.266v3.4h-2.267V54.4h9.07v1.133a1.134 1.134 0 002.269 0V54.4h2.268v11.333z"/></g><defs><clipPath id="clip0"><path fill="#fff" transform="translate(.678)" d="M0 0h68.035v68H0z"/></clipPath></defs></svg>