<svg width="71" height="70" fill="none" xmlns="http://www.w3.org/2000/svg"><g clip-path="url(#clip0)"><path d="M65.38 4.116h-22.4a1.028 1.028 0 100 2.055h22.4c1.7 0 3.084 1.383 3.084 3.082v35.958h-4.928v-31.56c0-1.7-1.384-3.083-3.084-3.083h-49.9a3.086 3.086 0 00-3.084 3.082v31.561H2.539V9.253c0-1.7 1.384-3.082 3.084-3.082H38.87a1.028 1.028 0 100-2.055H5.623a5.144 5.144 0 00-5.14 5.137v41.542a5.144 5.144 0 005.14 5.137h22.602l-1.036 7.897h-3.652a1.028 1.028 0 100 2.055h23.93a1.028 1.028 0 100-2.055h-3.652l-1.036-7.897H53.67a1.028 1.028 0 100-2.055H5.623a3.087 3.087 0 01-3.084-3.082v-3.529h65.925v3.529c0 1.7-1.383 3.082-3.084 3.082h-7.597a1.028 1.028 0 100 2.055h7.597a5.144 5.144 0 005.14-5.137V9.253a5.144 5.144 0 00-5.14-5.137zM41.742 63.83H29.263l1.036-7.897h10.406l1.036 7.897zM9.524 13.65c0-.566.46-1.027 1.028-1.027h49.9c.567 0 1.028.46 1.028 1.027v5.057H9.524V13.65zm0 7.112H61.48v24.45h-4.997v-4.58c0-.568-.46-1.028-1.028-1.028H37.963c-.568 0-1.028.46-1.028 1.027v4.58h-2.866v-4.58c0-.567-.46-1.027-1.028-1.027H15.549c-.568 0-1.028.46-1.028 1.027v4.58H9.524v-24.45zm44.903 24.45H38.99v-3.553h15.437v3.552zm-22.414 0H16.577v-3.553h15.436v3.552z" fill="#060122"/><path d="M13.444 14.008a1.58 1.58 0 00-1.579 1.578 1.58 1.58 0 003.158 0 1.58 1.58 0 00-1.579-1.579zm5.067 0a1.58 1.58 0 00-1.579 1.578 1.58 1.58 0 003.158 0 1.58 1.58 0 00-1.579-1.579zm5.067 0A1.58 1.58 0 0022 15.585a1.58 1.58 0 003.158 0 1.58 1.58 0 00-1.579-1.579zM15.55 37.096h7.477a1.028 1.028 0 100-2.055h-6.45v-9.015h37.848v9.015H27.139a1.028 1.028 0 100 2.055h28.313c.568 0 1.028-.46 1.028-1.027v-11.07c0-.567-.46-1.027-1.028-1.027H15.55c-.568 0-1.028.46-1.028 1.027v11.07c0 .567.46 1.027 1.028 1.027z" fill="#060122"/><path d="M26.497 5.13H51.51M38.503 54.9h25.013" stroke="#060122" stroke-width="2"/></g><defs><clipPath id="clip0"><path fill="#fff" transform="translate(.484)" d="M0 0h70.037v70H0z"/></clipPath></defs></svg>