<svg width="69" height="68" fill="none" xmlns="http://www.w3.org/2000/svg"><path d="M62.852 0H6.154a5.675 5.675 0 00-5.67 5.667v40.8a5.675 5.675 0 005.67 5.666h17.01V61.2h-3.403a3.405 3.405 0 00-3.401 3.4v2.267c0 .626.507 1.133 1.133 1.133h34.018c.627 0 1.134-.507 1.134-1.133V64.6a3.405 3.405 0 00-3.402-3.4h-3.401v-9.067H62.85a5.675 5.675 0 005.67-5.666v-40.8A5.675 5.675 0 0062.851 0zM6.154 2.267h49.893a3.405 3.405 0 013.402 3.4v37.4H2.754v-37.4a3.405 3.405 0 013.401-3.4zm-3.401 44.2v-1.134H59.45v1.134a3.405 3.405 0 01-3.402 3.4H6.155a3.405 3.405 0 01-3.401-3.4zm22.678 5.666h11.34V61.2h-11.34v-9.067zM18.629 64.6c0-.626.507-1.133 1.133-1.133h22.679c.626 0 1.133.507 1.134 1.133v1.133H18.628V64.6zm31.75 0v1.133h-4.536V64.6a3.358 3.358 0 00-.21-1.133h3.611c.626 0 1.134.507 1.134 1.133zm-6.804-3.4h-4.536v-9.067h4.536V61.2zm22.678-14.733a3.405 3.405 0 01-3.401 3.4h-2.297a5.61 5.61 0 001.163-3.4v-40.8a5.61 5.61 0 00-1.163-3.4h2.297a3.405 3.405 0 013.401 3.4v40.8z" fill="#060122"/><path d="M42.441 19.267h9.072A2.27 2.27 0 0053.78 17V7.934a2.27 2.27 0 00-2.267-2.267H42.44a2.27 2.27 0 00-2.268 2.267V17a2.27 2.27 0 002.268 2.267zm0-11.333h9.072V17H42.44V7.934zm0 31.733h9.072A2.27 2.27 0 0053.78 37.4v-2.266a1.134 1.134 0 00-2.267 0V37.4H42.44v-9.066h5.67a1.134 1.134 0 100-2.267h-5.67a2.27 2.27 0 00-2.268 2.267V37.4a2.27 2.27 0 002.268 2.267zM7.29 9.067h9.07a1.134 1.134 0 100-2.266H7.29a1.134 1.134 0 100 2.266zm13.607 0h13.607a1.134 1.134 0 100-2.266H20.897a1.134 1.134 0 100 2.266zM7.29 13.6h27.214a1.134 1.134 0 100-2.266H7.29a1.134 1.134 0 100 2.266zm0 4.534h13.607a1.134 1.134 0 100-2.267H7.29a1.134 1.134 0 100 2.267zm27.213-2.267h-9.071a1.134 1.134 0 100 2.267h9.071a1.134 1.134 0 100-2.267zM7.29 29.467h9.07a1.134 1.134 0 100-2.267H7.29a1.134 1.134 0 100 2.267zM34.504 27.2H20.897a1.134 1.134 0 100 2.267h13.607a1.134 1.134 0 100-2.267zM7.29 34h27.214a1.134 1.134 0 100-2.267H7.29a1.134 1.134 0 100 2.267zm0 4.534h13.607a1.134 1.134 0 100-2.267H7.29a1.134 1.134 0 100 2.267zm27.213-2.267h-9.071a1.134 1.134 0 100 2.267h9.071a1.134 1.134 0 100-2.267z" fill="#060122"/><path d="M46.644 30.932a1.134 1.134 0 00-1.603 1.603l2.268 2.267a1.132 1.132 0 001.709-.122l6.803-9.066a1.133 1.133 0 10-1.814-1.36l-6.02 8.021-1.343-1.343z" fill="#060122"/></svg>