<svg width="37" height="37" fill="none" xmlns="http://www.w3.org/2000/svg"><path d="M31.899 0H4.234A4.24 4.24 0 000 4.234V31.9a4.24 4.24 0 004.234 4.234H31.9a4.24 4.24 0 004.234-4.234V4.234A4.24 4.24 0 0031.899 0zm1.411 31.899c0 .778-.633 1.411-1.411 1.411h-8.046V21.807h4.361l.72-4.376h-5.08v-3.034c0-1.198.919-2.117 2.117-2.117h2.893V7.904h-2.893a6.492 6.492 0 00-6.491 6.505v3.022h-4.236v4.376h4.236V33.31H4.234a1.413 1.413 0 01-1.411-1.41V4.234c0-.778.633-1.411 1.411-1.411H31.9c.778 0 1.411.633 1.411 1.411V31.9z" fill="#fff"/></svg>