<svg width="37" height="37" fill="none" xmlns="http://www.w3.org/2000/svg"><g clip-path="url(#clip0)" fill="#fff"><path d="M26.59.867H9.543C4.19.867 0 5.058 0 10.41v17.047C0 32.81 4.191 37 9.543 37H26.59c5.352 0 9.543-4.191 9.543-9.543V10.41c0-5.352-4.193-9.543-9.543-9.543zm7.212 26.59c0 4.045-3.168 7.212-7.212 7.212H9.543c-4.044 0-7.212-3.168-7.212-7.212V10.41c0-4.044 3.168-7.212 7.212-7.212H26.59c4.045 0 7.212 3.168 7.212 7.212v17.047z"/><path d="M30.025 9.74a1.21 1.21 0 00-1.298-.064c-.406.233-1.305.347-2.027.44-.15.02-.296.038-.439.058a5.783 5.783 0 00-3.63-1.277c-2.995 0-5.453 2.265-5.628 5.114-2.716-.448-5.204-1.832-6.967-3.911a1.208 1.208 0 00-1.08-.41 1.181 1.181 0 00-.922.682c-.076.17-.738 1.761-.738 5.698 0 3.409 2.754 5.913 4.643 7.231-1.293.574-2.781.785-4.196.632a1.19 1.19 0 00-1.253.769c-.182.51.02 1.075.487 1.364a14.196 14.196 0 007.457 2.102c8.504 0 13.65-6.528 13.842-12.963.244-.347.71-1.021 1.498-2.205.316-.476.58-1.503.71-2.073a1.145 1.145 0 00-.46-1.188zm-3.89 4.411a1.144 1.144 0 00-.225.68c0 4.575-3.56 11.018-11.475 11.018-.716 0-1.425-.064-2.12-.189a10.245 10.245 0 002.61-1.428 1.15 1.15 0 00.457-1.027 1.158 1.158 0 00-.646-.925c-.05-.025-5.066-2.602-5.066-6.21 0-1.208.067-2.159.154-2.882a14.151 14.151 0 008.412 3.281.572.572 0 00.071.002c.69-.02 1.199-.515 1.199-1.16 0-.16-.034-.311-.094-.45a3.122 3.122 0 01-.045-.525c0-1.72 1.464-3.121 3.265-3.121.904 0 1.774.362 2.387.991.28.285.69.414 1.084.338.27-.05.58-.089.907-.13.116-.016.234-.03.353-.047a58.29 58.29 0 01-1.228 1.784z"/></g><defs><clipPath id="clip0"><path fill="#fff" transform="translate(0 .867)" d="M0 0h36.133v36.133H0z"/></clipPath></defs></svg>