<svg width="38" height="37" fill="none" xmlns="http://www.w3.org/2000/svg"><g clip-path="url(#clip0)"><path d="M24.113 1.637H12.026a3.674 3.674 0 00-2.67 1.171 4.121 4.121 0 00-1.107 2.828v27.193c0 1.06.398 2.078 1.106 2.828a3.674 3.674 0 002.671 1.17h12.087a3.674 3.674 0 002.671-1.17 4.121 4.121 0 001.106-2.828V5.636c0-1.06-.398-2.078-1.106-2.828a3.674 3.674 0 00-2.67-1.171zM18.07 35.228c-1.254 0-2.267-1.072-2.267-2.4 0-1.327 1.013-2.399 2.267-2.399s2.266 1.072 2.266 2.4c0 1.328-1.012 2.4-2.266 2.4zm6.799-6.398H11.27V6.436h13.598V28.83z" fill="#FF7F00"/></g><defs><clipPath id="clip0"><path fill="#fff" transform="translate(.884)" d="M0 0h36.828v36.828H0z"/></clipPath></defs></svg>