<svg width="36" height="36" fill="none" xmlns="http://www.w3.org/2000/svg"><g clip-path="url(#clip0)"><path fill-rule="evenodd" clip-rule="evenodd" d="M3.85 4.399c-1.022 0-2 .415-2.722 1.153A3.985 3.985 0 000 8.337v19.13c0 2.174 1.725 3.939 3.85 3.939h27.492c1.021 0 2-.415 2.722-1.154a3.985 3.985 0 001.127-2.785V8.337a3.985 3.985 0 00-1.127-2.785A3.805 3.805 0 0031.342 4.4H3.85zm28.042 4.658v-.72a.57.57 0 00-.16-.398.544.544 0 00-.39-.165H3.85a.544.544 0 00-.389.165.57.57 0 00-.16.398v.72l14.296 8.575 14.296-8.575zM3.3 12.973V27.47c0 .31.247.563.55.563h27.493a.55.55 0 00.39-.165.57.57 0 00.16-.398V12.971l-13.46 8.075a1.621 1.621 0 01-1.672 0L3.3 12.971v.002z" fill="#FF7F00"/></g><defs><clipPath id="clip0"><path fill="#fff" transform="translate(0 .307)" d="M0 0h35.191v35.191H0z"/></clipPath></defs></svg>